<?xml version="1.0" standalone="no"?>
<!DOCTYPE svg PUBLIC "-//W3C//DTD SVG 20010904//EN"
 "http://www.w3.org/TR/2001/REC-SVG-20010904/DTD/svg10.dtd">
<svg version="1.0" xmlns="http://www.w3.org/2000/svg"
 width="171.000000pt" height="171.000000pt" viewBox="0 0 171.000000 171.000000"
 preserveAspectRatio="xMidYMid meet">
<metadata>
Created by potrace 1.11, written by Peter Selinger 2001-2013
</metadata>
<g transform="translate(0.000000,171.000000) scale(0.100000,-0.100000)"
fill="#000000" stroke="none">
<path d="M534 1700 c-11 -4 -27 -6 -37 -4 -9 1 -14 -2 -11 -8 3 -5 0 -8 -7 -7
-22 4 -119 -20 -134 -34 -8 -6 -29 -23 -47 -37 -57 -44 -148 -141 -148 -159 0
-7 -4 -10 -10 -6 -8 5 -36 -70 -32 -87 1 -5 -2 -8 -6 -8 -5 0 -9 -6 -9 -12 0
-7 -7 -35 -15 -63 -8 -27 -13 -75 -12 -105 2 -30 5 -99 7 -153 l4 -99 -34 -16
c-39 -18 -48 -45 -39 -105 4 -23 8 -48 8 -54 1 -7 4 -13 8 -13 8 0 36 -71 32
-83 -1 -5 2 -6 8 -2 5 3 10 -1 10 -11 0 -16 34 -78 55 -100 12 -12 44 -12 63
0 16 9 14 11 36 -39 42 -94 71 -150 79 -156 5 -3 9 -10 9 -15 1 -19 24 -59 45
-81 13 -12 23 -21 23 -20 0 2 29 -25 65 -60 56 -54 105 -89 132 -95 5 -1 14
-8 21 -15 7 -7 20 -13 28 -13 8 0 14 -5 14 -11 0 -5 4 -8 9 -5 5 4 11 2 13 -4
1 -5 38 -12 80 -15 73 -5 80 -4 134 26 43 25 71 52 123 121 36 49 67 92 67 96
5 25 18 52 25 52 9 0 38 92 43 133 1 12 5 27 8 32 8 14 6 235 -3 235 -3 0 -5
11 -4 24 2 14 0 41 -5 60 -4 20 -5 36 -1 36 3 0 6 15 6 34 0 19 -2 33 -5 31
-3 -2 -6 17 -7 42 -2 58 21 108 45 98 44 -18 102 -1 102 30 0 13 -59 67 -99
91 -21 12 -29 24 -27 38 2 12 -2 27 -8 35 -8 11 -8 13 2 7 13 -8 17 6 5 18 -5
4 -8 11 -8 14 0 4 -5 21 -12 37 -6 17 -15 39 -19 50 -4 11 -6 23 -6 28 1 4 -2
7 -8 7 -5 0 -10 5 -10 10 0 6 -20 41 -45 79 -44 66 -114 124 -198 162 -15 7
-27 16 -27 21 0 4 -6 8 -14 8 -7 0 -26 10 -41 22 -23 18 -42 22 -115 23 -48 1
-96 -2 -106 -5z"/>
<path d="M1320 1700 c-14 -4 -21 -8 -16 -9 4 -1 -1 -9 -12 -18 -26 -23 -62
-80 -43 -69 11 7 12 6 5 -5 -12 -20 -14 -39 -3 -39 6 0 7 -4 4 -10 -3 -5 -2
-10 3 -10 8 0 15 -13 20 -43 5 -22 187 -199 212 -205 6 -1 9 2 5 8 -3 5 -1 10
4 10 14 0 171 155 171 169 0 5 8 17 18 27 12 13 17 34 17 79 0 54 -3 64 -28
87 -52 48 -152 46 -174 -4 -9 -20 -9 -20 -41 7 -35 29 -96 40 -142 25z"/>
<path d="M1340 1149 c-14 -4 -21 -7 -16 -8 6 -1 1 -7 -9 -15 -10 -7 -20 -19
-21 -27 -2 -8 -5 -24 -8 -37 -3 -13 -1 -20 5 -17 5 4 9 -1 9 -9 0 -23 22 -66
31 -61 4 3 10 -3 14 -12 5 -17 92 -94 112 -100 5 -2 19 6 31 17 12 12 22 18
22 15 0 -3 18 12 40 34 22 21 40 43 40 49 0 6 8 16 18 21 9 6 13 11 7 11 -5 0
-4 4 4 9 20 13 21 61 2 93 -26 48 -110 59 -142 19 -16 -19 -16 -19 -36 0 -21
22 -65 30 -103 18z"/>
<path d="M1241 642 c-46 -23 -56 -60 -30 -110 11 -21 33 -46 49 -57 16 -11 26
-23 24 -27 -3 -4 2 -8 10 -8 8 0 21 -9 28 -19 13 -19 15 -18 48 10 95 80 115
113 106 165 -8 39 -52 68 -80 52 -10 -6 -20 -7 -23 -4 -3 3 -11 -1 -17 -9 -9
-13 -15 -13 -38 -3 -16 7 -28 16 -28 21 0 10 -11 8 -49 -11z"/>
</g>
</svg>
